<?xml version="1.0" encoding="utf-8"?>
<svg version="1.1" xmlns="http://www.w3.org/2000/svg" xmlns:xlink="http://www.w3.org/1999/xlink" width="752" height="32" viewBox="0 0 752 32">

<svg id="red" width="76" height="32" viewBox="0 0 76 32">
<path fill="none" stroke="#dc3353" stroke-linejoin="miter" stroke-linecap="butt" stroke-miterlimit="4" stroke-width="0.6809" d="M36.528 0.981c-7.576-0.095-17.246 1.263-23.228 3.459s-11.477 6.356-12.666 9.72c-1.189 3.364 1.354 7.643 5.531 10.462s11.942 5.471 19.526 6.454 18.521 0.675 25.98-0.558c7.459-1.233 14.937-3.948 18.775-6.839s5.814-7.271 4.252-10.509c-1.563-3.239-6.733-6.82-13.629-8.923s-22.691-3.143-27.747-3.694M33.853 0.604c-7.77 0.105-18.251 2.51-23.726 4.92s-8.549 6.275-9.127 9.538c-0.577 3.264 0.974 7.435 5.663 10.044s14.718 4.694 22.472 5.612c7.754 0.918 17.055 1.295 24.054-0.103s14.599-5.181 17.936-8.286c3.337-3.105 4.2-7.219 2.087-10.344s-8.424-6.612-14.761-8.407c-6.337-1.795-19.078-1.868-23.259-2.364s-1.765-0.843-1.825-0.611"></path>
<path fill="none" stroke="#dc3353" stroke-linejoin="miter" stroke-linecap="butt" stroke-miterlimit="4" stroke-width="0.6809" d="M45.515 0.75c7.514 0.452 16.478 3.243 21.332 5.829s7.944 6.406 7.792 9.689-3.499 7.509-8.704 10.012c-5.205 2.503-14.707 4.536-22.528 5.004s-17.56-0.457-24.4-2.194c-6.84-1.738-14.056-5.071-16.642-8.232s-1.725-7.644 1.128-10.735 8.263-6.334 15.99-7.81c7.728-1.476 24.688-1.051 30.377-1.046s3.938 0.86 3.756 1.076M21.992 2.385c6.649-1.709 17.068-2.483 24.543-1.794s15.527 3.219 20.309 5.93c4.782 2.711 8.559 7.077 8.383 10.335s-4.081 6.771-9.437 9.216c-5.355 2.445-14.722 4.942-22.697 5.456s-18.177-0.525-25.149-2.376c-6.972-1.851-14.459-5.555-16.684-8.73s-0.151-7.305 3.333-10.324c3.485-3.019 14.783-6.549 17.574-7.789s-0.801 0.214-0.827 0.345"></path>
</svg>

<svg id="icon-close" width="14" height="14" viewBox="0 0 32 32">
<path d="M3.2 32l-3.2-3.2 12.8-12.8-12.8-12.8 3.2-3.2 12.8 12.8 12.8-12.8 3.2 3.2-12.8 12.8 12.8 12.8-3.2 3.2-12.8-12.8-12.8 12.8z"></path>
</svg>
</svg>
